<?xml version="1.0" encoding="utf-8"?>
<!-- Generator: Adobe Illustrator 24.3.0, SVG Export Plug-In . SVG Version: 6.00 Build 0)  -->
<svg version="1.1" id="Layer_1" xmlns="http://www.w3.org/2000/svg" xmlns:xlink="http://www.w3.org/1999/xlink" x="0px" y="0px"
	 viewBox="0 0 1920 1080" style="enable-background:new 0 0 1920 1080;" xml:space="preserve">
<path d="M752.41,318.26h89.14c83.81,0,142.76,50.86,142.76,122.84s-58.95,123.2-142.76,123.2h-89.14V318.26z M850.78,508.78
	c41.55,0,71.38-28.29,71.38-67.69c0-39.4-29.83-67.33-71.38-67.33h-37.64v135.01H850.78z"/>
<polygon points="1399.66,564.29 1515,318.26 1447.79,318.26 1385.01,460.34 1324.58,318.26 1257.37,318.26 1367.72,564.29 "/>
<g>
	<rect x="1040.59" y="414.2" width="171.54" height="53.61"/>
	<rect x="1017.81" y="319.05" width="217.1" height="48.24"/>
	<rect x="1017.81" y="512.03" width="217.1" height="52.27"/>
</g>
<polygon points="460.71,564.29 527.32,418.22 591.06,564.29 621.47,564.29 718.03,318.26 651.55,318.26 605.05,447.7 540.72,318.26 
	511.24,318.26 449.59,453.06 404.03,319.05 334.34,319.05 432.97,564.29 "/>
<g>
	<path d="M358.21,625.61h5.44l24.24,54.36h-7.92l-7.2-16.02H349.7l-6.75,16.02H335L358.21,625.61z M369.58,657.06l-8.72-19.58
		l-8.09,19.58H369.58z"/>
	<path d="M460.37,625.92h7.35v54.05h-6.65l-36.14-41.63v41.63h-7.27v-54.05h6.27l36.45,41.98V625.92z"/>
	<path d="M502.98,679.89v-53.97h18.22c7.35,0,13.17,1.1,17.45,3.31s7.69,5.45,10.21,9.73c2.53,4.28,3.79,8.95,3.79,14.01
		c0,3.61-0.7,7.07-2.09,10.37c-1.39,3.3-3.38,6.2-5.96,8.71c-2.63,2.58-5.69,4.53-9.17,5.84c-2.04,0.8-3.91,1.33-5.61,1.61
		c-1.7,0.27-4.95,0.41-9.75,0.41H502.98z M520.39,632.81h-9.67V673h9.9c3.87,0,6.87-0.26,9.01-0.79c2.14-0.53,3.93-1.2,5.36-2.01
		c1.43-0.81,2.74-1.81,3.93-3c3.82-3.87,5.73-8.76,5.73-14.66c0-5.8-1.96-10.54-5.88-14.2c-1.44-1.37-3.1-2.49-4.97-3.37
		c-1.87-0.88-3.64-1.46-5.32-1.74S524.1,632.81,520.39,632.81z"/>
	<path d="M586.17,679.97v-54.05h13.54c5.47,0,9.81,1.35,13.02,4.06c3.21,2.71,4.82,6.37,4.82,10.99c0,3.15-0.79,5.87-2.36,8.16
		c-1.57,2.3-3.83,4.01-6.77,5.15c1.73,1.13,3.42,2.68,5.07,4.64c1.65,1.96,3.97,5.38,6.96,10.25c1.88,3.07,3.39,5.38,4.53,6.93
		l2.86,3.87h-9.21l-2.35-3.56c-0.08-0.13-0.23-0.35-0.46-0.66l-1.51-2.13l-2.4-3.95l-2.59-4.22c-1.6-2.22-3.06-3.99-4.39-5.3
		c-1.33-1.31-2.53-2.26-3.6-2.84c-1.07-0.58-2.87-0.87-5.4-0.87h-2.02v23.52H586.17z M596.23,632.5h-2.32v17.06h2.94
		c3.92,0,6.61-0.34,8.07-1.01c1.46-0.67,2.59-1.68,3.4-3.04c0.81-1.35,1.22-2.9,1.22-4.62c0-1.7-0.45-3.24-1.35-4.62
		s-2.17-2.35-3.81-2.92S600.02,632.5,596.23,632.5z"/>
	<path d="M679.17,625.15c8.35,0,15.31,2.64,20.86,7.93c5.55,5.29,8.33,11.92,8.33,19.89c0,7.97-2.81,14.57-8.41,19.79
		c-5.61,5.22-12.68,7.83-21.21,7.83c-8.14,0-14.93-2.61-20.36-7.83c-5.42-5.22-8.14-11.77-8.14-19.64c0-8.07,2.73-14.75,8.2-20.04
		C663.91,627.79,670.82,625.15,679.17,625.15z M679.48,632.5c-6.18,0-11.27,1.93-15.25,5.8c-3.98,3.87-5.97,8.81-5.97,14.82
		c0,5.83,2,10.68,5.99,14.55c3.99,3.87,9,5.8,15,5.8c6.03,0,11.06-1.97,15.1-5.92c4.03-3.95,6.05-8.86,6.05-14.74
		c0-5.73-2.02-10.54-6.05-14.45C690.31,634.45,685.36,632.5,679.48,632.5z"/>
	<path d="M741.57,625.92h7.74v54.05h-7.74V625.92z"/>
	<path d="M785,679.89v-53.97h18.22c7.35,0,13.17,1.1,17.45,3.31s7.69,5.45,10.21,9.73c2.53,4.28,3.79,8.95,3.79,14.01
		c0,3.61-0.7,7.07-2.09,10.37c-1.39,3.3-3.38,6.2-5.96,8.71c-2.63,2.58-5.69,4.53-9.17,5.84c-2.04,0.8-3.91,1.33-5.61,1.61
		c-1.7,0.27-4.95,0.41-9.75,0.41H785z M802.41,632.81h-9.67V673h9.9c3.87,0,6.87-0.26,9.01-0.79c2.14-0.53,3.93-1.2,5.36-2.01
		c1.43-0.81,2.74-1.81,3.93-3c3.82-3.87,5.73-8.76,5.73-14.66c0-5.8-1.96-10.54-5.88-14.2c-1.44-1.37-3.1-2.49-4.97-3.37
		c-1.87-0.88-3.64-1.46-5.32-1.74S806.12,632.81,802.41,632.81z"/>
	<path d="M913.66,679.89v-53.97h18.22c7.35,0,13.17,1.1,17.45,3.31c4.28,2.21,7.69,5.45,10.21,9.73c2.53,4.28,3.79,8.95,3.79,14.01
		c0,3.61-0.7,7.07-2.09,10.37c-1.39,3.3-3.38,6.2-5.96,8.71c-2.63,2.58-5.69,4.53-9.17,5.84c-2.04,0.8-3.91,1.33-5.61,1.61
		c-1.7,0.27-4.95,0.41-9.75,0.41H913.66z M931.07,632.81h-9.67V673h9.9c3.87,0,6.87-0.26,9.01-0.79c2.14-0.53,3.93-1.2,5.36-2.01
		c1.43-0.81,2.74-1.81,3.93-3c3.82-3.87,5.73-8.76,5.73-14.66c0-5.8-1.96-10.54-5.88-14.2c-1.44-1.37-3.1-2.49-4.97-3.37
		c-1.87-0.88-3.64-1.46-5.32-1.74C937.48,632.95,934.79,632.81,931.07,632.81z"/>
	<path d="M996.62,625.92h30.64v6.89h-22.9v16.48h22.13v6.93h-22.13V673H1028v6.89h-31.38V625.92z"/>
	<path d="M1094.09,625.92h7.71l-22.85,54.28h-1.75l-23.29-54.28h7.79l16.26,37.95L1094.09,625.92z"/>
	<path d="M1131.33,625.92h30.64v6.89h-22.9v16.48h22.13v6.93h-22.13V673h23.64v6.89h-31.38V625.92z"/>
	<path d="M1194.56,625.92h7.74v47.01h24.34v7.04h-32.07V625.92z"/>
	<path d="M1283.54,625.15c8.35,0,15.31,2.64,20.86,7.93c5.56,5.29,8.33,11.92,8.33,19.89c0,7.97-2.8,14.57-8.41,19.79
		c-5.6,5.22-12.67,7.83-21.21,7.83c-8.14,0-14.93-2.61-20.35-7.83c-5.43-5.22-8.14-11.77-8.14-19.64c0-8.07,2.73-14.75,8.2-20.04
		C1268.28,627.79,1275.19,625.15,1283.54,625.15z M1283.85,632.5c-6.19,0-11.27,1.93-15.25,5.8c-3.98,3.87-5.97,8.81-5.97,14.82
		c0,5.83,2,10.68,5.99,14.55c3.99,3.87,8.99,5.8,15,5.8c6.03,0,11.06-1.97,15.09-5.92c4.04-3.95,6.05-8.86,6.05-14.74
		c0-5.73-2.02-10.54-6.05-14.45C1294.68,634.45,1289.72,632.5,1283.85,632.5z"/>
	<path d="M1345.43,679.97v-54.13h17.14c5.16,0,9.27,1.39,12.34,4.18c3.07,2.79,4.6,6.53,4.6,11.22c0,3.15-0.79,5.93-2.36,8.36
		c-1.57,2.42-3.73,4.18-6.46,5.28c-2.73,1.1-6.65,1.64-11.76,1.64h-5.73v23.45H1345.43z M1361.22,632.73h-8.01v16.91h8.47
		c3.15,0,5.57-0.74,7.27-2.22c1.7-1.48,2.55-3.6,2.55-6.36C1371.51,635.5,1368.08,632.73,1361.22,632.73z"/>
	<path d="M1409.87,625.92h30.64v6.89h-22.9v16.48h22.13v6.93h-22.13V673h23.64v6.89h-31.38V625.92z"/>
	<path d="M1473.33,679.97v-54.05h13.54c5.47,0,9.81,1.35,13.02,4.06c3.21,2.71,4.82,6.37,4.82,10.99c0,3.15-0.79,5.87-2.36,8.16
		c-1.57,2.3-3.83,4.01-6.77,5.15c1.73,1.13,3.42,2.68,5.07,4.64c1.65,1.96,3.97,5.38,6.96,10.25c1.88,3.07,3.39,5.38,4.53,6.93
		l2.86,3.87h-9.21l-2.36-3.56c-0.08-0.13-0.23-0.35-0.46-0.66l-1.51-2.13l-2.4-3.95l-2.59-4.22c-1.6-2.22-3.06-3.99-4.39-5.3
		c-1.33-1.31-2.53-2.26-3.6-2.84c-1.07-0.58-2.87-0.87-5.4-0.87h-2.02v23.52H1473.33z M1483.39,632.5h-2.32v17.06h2.94
		c3.92,0,6.61-0.34,8.07-1.01c1.46-0.67,2.59-1.68,3.4-3.04c0.81-1.35,1.22-2.9,1.22-4.62c0-1.7-0.45-3.24-1.35-4.62
		c-0.9-1.38-2.17-2.35-3.81-2.92C1489.9,632.78,1487.18,632.5,1483.39,632.5z"/>
</g>
</svg>
